<?xml version="1.0" standalone="no"?>
<!DOCTYPE svg PUBLIC "-//W3C//DTD SVG 20010904//EN"
 "http://www.w3.org/TR/2001/REC-SVG-20010904/DTD/svg10.dtd">
<svg version="1.0" xmlns="http://www.w3.org/2000/svg"
 width="557.000000pt" height="190.000000pt" viewBox="0 0 557.000000 190.000000"
 preserveAspectRatio="xMidYMid meet">
<metadata>
Created by potrace 1.16, written by Peter Selinger 2001-2019
</metadata>
<g transform="translate(0.000000,190.000000) scale(0.100000,-0.100000)"
fill="#000000" stroke="none">
<path d="M2751 1644 c-26 -21 -31 -33 -31 -68 0 -62 33 -96 95 -96 38 0 52 5
76 29 90 90 -42 217 -140 135z"/>
<path d="M2950 990 l0 -650 95 0 95 0 0 650 0 650 -95 0 -95 0 0 -650z"/>
<path d="M645 1561 c-43 -11 -107 -46 -126 -67 -52 -59 -64 -155 -30 -231 24
-51 51 -70 159 -108 94 -33 120 -57 88 -81 -40 -29 -152 -9 -227 40 l-39 26 0
-89 0 -90 58 -27 c68 -33 195 -44 258 -24 96 31 164 111 164 191 -1 48 -32
112 -68 137 -16 12 -67 36 -113 53 -97 37 -109 45 -109 70 0 45 104 53 188 14
30 -14 56 -25 58 -25 3 0 3 39 2 88 l-3 87 -54 18 c-63 21 -163 30 -206 18z"/>
<path d="M1161 1504 c-17 -47 -63 -98 -106 -118 -33 -16 -35 -20 -35 -66 l0
-50 39 0 39 0 4 -134 c3 -149 10 -167 78 -213 45 -31 138 -32 186 -2 33 20 34
23 34 83 l0 63 -53 -5 c-71 -6 -80 6 -85 119 l-4 89 66 0 66 0 0 65 0 65 -65
0 -65 0 0 70 0 70 -43 0 c-40 0 -44 -2 -56 -36z"/>
<path d="M1510 1225 c0 -125 4 -185 14 -208 16 -39 76 -94 114 -104 24 -7 21
-9 -23 -13 l-50 -5 -3 -258 -2 -257 65 0 64 0 3 117 c3 114 4 118 28 130 20
10 29 10 45 -1 18 -12 20 -26 23 -130 l3 -116 64 0 65 0 0 123 c0 144 -10 187
-51 221 -39 34 -113 36 -152 6 l-26 -20 -3 95 -3 95 65 0 c100 1 181 48 209
123 6 16 11 104 11 203 l0 174 -79 0 -80 0 -3 -155 c-3 -166 -7 -177 -59 -190
-17 -4 -33 0 -50 13 -23 20 -24 25 -27 176 l-3 156 -80 0 -79 0 0 -175z"/>
<path d="M2159 1158 l117 -243 56 -3 55 -3 20 48 c12 26 64 137 117 246 l95
198 -97 -3 -97 -3 -45 -117 c-25 -65 -47 -118 -50 -118 -3 0 -26 53 -51 118
l-47 117 -95 3 -96 3 118 -243z"/>
<path d="M2670 1336 l0 -65 38 -3 37 -3 3 -177 2 -178 80 0 80 0 0 245 0 245
-120 0 -120 0 0 -64z"/>
<path d="M3354 852 c-72 -34 -105 -105 -84 -182 15 -56 44 -81 128 -108 72
-23 92 -42 66 -63 -20 -17 -108 -5 -151 21 -19 11 -36 20 -39 20 -2 0 -4 -29
-4 -64 l0 -64 49 -21 c97 -41 216 -21 274 48 21 26 27 43 27 81 0 69 -37 109
-132 144 -75 28 -90 40 -81 62 12 31 78 27 166 -11 15 -6 17 0 17 57 0 61 -2
66 -27 77 -16 7 -59 15 -98 17 -55 4 -79 1 -111 -14z"/>
<path d="M944 740 c-38 -15 -74 -68 -74 -110 0 -52 31 -85 100 -108 32 -11 55
-25 55 -33 0 -20 -66 -23 -110 -5 -21 9 -39 16 -41 16 -2 0 -4 -22 -4 -49 0
-48 1 -49 40 -65 54 -22 137 -21 180 2 43 23 74 80 65 121 -8 39 -40 65 -102
86 -52 16 -68 37 -37 49 27 10 64 7 94 -9 l30 -16 0 50 c0 46 -3 52 -30 66
-31 16 -131 19 -166 5z"/>
<path d="M1288 721 c-121 -77 -114 -267 12 -331 49 -25 131 -27 171 -3 26 16
29 22 29 71 0 47 -2 52 -17 43 -17 -9 -60 -14 -95 -12 -28 2 -58 38 -58 70 0
43 43 74 95 69 22 -3 48 -8 58 -12 15 -7 17 -2 17 42 0 68 -28 92 -109 92 -46
0 -66 -6 -103 -29z"/>
<path d="M2105 734 c-125 -64 -153 -202 -61 -302 64 -71 191 -84 262 -26 73
58 95 116 80 199 -8 43 -68 113 -113 132 -43 18 -131 16 -168 -3z m129 -115
c30 -24 35 -72 10 -107 -18 -25 -84 -31 -103 -9 -33 40 -20 110 22 127 33 13
42 12 71 -11z"/>
<path d="M2545 727 c-21 -12 -53 -42 -69 -65 -26 -36 -31 -53 -31 -102 0 -225
336 -261 394 -42 22 80 -22 173 -99 212 -55 28 -142 27 -195 -3z m128 -98 c12
-7 25 -17 29 -23 10 -14 10 -78 0 -93 -13 -20 -55 -31 -82 -21 -32 12 -40 25
-40 69 0 37 14 63 40 72 23 8 30 8 53 -4z"/>
<path d="M3785 736 c-62 -27 -115 -113 -115 -186 1 -60 63 -147 123 -169 41
-16 113 -13 147 4 28 14 30 20 30 71 0 52 -1 54 -21 44 -35 -19 -99 -15 -122
8 -28 29 -27 80 2 104 26 20 91 24 122 8 18 -10 19 -7 19 44 0 51 -2 57 -30
71 -35 18 -114 19 -155 1z"/>
<path d="M4125 733 c-69 -36 -115 -105 -115 -173 0 -76 60 -155 136 -180 55
-19 136 -8 183 23 112 74 108 245 -6 318 -39 24 -57 29 -107 29 -36 -1 -74 -7
-91 -17z m129 -114 c31 -24 36 -81 9 -111 -16 -18 -68 -24 -90 -10 -39 24 -34
108 8 129 33 17 42 16 73 -8z"/>
<path d="M4645 719 l-35 -31 0 26 c0 25 -2 26 -60 26 l-60 0 0 -180 0 -180 60
0 60 0 0 93 c0 90 1 94 29 121 24 23 36 28 65 24 l36 -4 0 68 0 68 -30 0 c-19
0 -42 -11 -65 -31z"/>
<path d="M4885 731 c-136 -82 -137 -275 -3 -340 53 -25 142 -28 193 -7 34 14
35 17 35 67 0 44 -2 50 -17 45 -88 -34 -182 -20 -183 27 0 4 55 7 121 7 l121
0 -4 60 c-5 67 -24 101 -78 138 -43 29 -140 31 -185 3z"/>
</g>
</svg>
