<svg xmlns="http://www.w3.org/2000/svg" xmlns:xlink="http://www.w3.org/1999/xlink" width="500" zoomAndPan="magnify" viewBox="0 0 375 374.999991" height="500" preserveAspectRatio="xMidYMid meet" version="1.0"><defs><g/><clipPath id="cde77eef98"><path d="M 117 81.363281 L 258 81.363281 L 258 204.363281 L 117 204.363281 Z M 117 81.363281 " clip-rule="nonzero"/></clipPath></defs><g clip-path="url(#cde77eef98)"><path fill="#e6ddd1" d="M 251.527344 121.277344 C 246.386719 118.816406 239.320312 122.066406 233.140625 128.910156 C 233.160156 128.339844 233.179688 127.773438 233.179688 127.195312 C 233.179688 101.875 212.59375 81.347656 187.207031 81.347656 C 162.984375 81.347656 143.132812 100.039062 141.363281 123.753906 C 135.378906 117.496094 128.6875 114.613281 123.765625 116.972656 C 116.191406 120.601562 115.683594 135.238281 122.625 149.664062 C 127.492188 159.789062 134.738281 167.105469 141.242188 169.335938 L 141.242188 196.539062 C 143.226562 192.550781 147.125 189.847656 151.601562 189.847656 C 158.101562 189.847656 163.375 195.550781 163.375 202.59375 C 163.375 202.660156 163.367188 202.722656 163.367188 202.792969 L 163.429688 202.792969 C 164.007812 196.332031 169.03125 191.28125 175.152344 191.28125 C 180.574219 191.28125 185.136719 195.25 186.5 200.644531 C 187.875 195.25 192.433594 191.28125 197.855469 191.28125 C 204.359375 191.28125 209.628906 196.984375 209.628906 204.027344 C 209.628906 204.144531 209.625 204.257812 209.617188 204.375 L 209.699219 204.375 C 210.316406 197.972656 215.320312 192.96875 221.40625 192.96875 C 226.652344 192.96875 231.089844 196.691406 232.617188 201.820312 C 232.976562 201.097656 233.179688 200.289062 233.179688 199.425781 L 233.179688 173.914062 C 239.898438 172.070312 247.582031 164.546875 252.667969 153.96875 C 259.613281 139.542969 259.101562 124.90625 251.527344 121.277344 " fill-opacity="1" fill-rule="nonzero"/></g><path fill="#231f1f" d="M 199.765625 145.679688 C 199.765625 157.019531 193.664062 166.207031 186.140625 166.207031 C 178.613281 166.207031 172.519531 157.019531 172.519531 145.679688 C 172.519531 134.339844 178.613281 125.152344 186.140625 125.152344 C 193.664062 125.152344 199.765625 134.339844 199.765625 145.679688 " fill-opacity="1" fill-rule="nonzero"/><path fill="#ec1b24" d="M 186.140625 149.300781 C 181.613281 149.300781 177.605469 152.632812 175.128906 157.753906 C 177.605469 162.875 181.613281 166.207031 186.140625 166.207031 C 190.671875 166.207031 194.679688 162.875 197.152344 157.753906 C 194.679688 152.632812 190.671875 149.300781 186.140625 149.300781 " fill-opacity="1" fill-rule="nonzero"/><path fill="#231f1f" d="M 172.519531 114.257812 C 172.519531 116.425781 170.757812 118.1875 168.585938 118.1875 C 166.414062 118.1875 164.648438 116.425781 164.648438 114.257812 C 164.648438 112.09375 166.414062 110.328125 168.585938 110.328125 C 170.757812 110.328125 172.519531 112.09375 172.519531 114.257812 " fill-opacity="1" fill-rule="nonzero"/><path fill="#231f1f" d="M 207.636719 114.257812 C 207.636719 116.425781 205.871094 118.1875 203.699219 118.1875 C 201.527344 118.1875 199.765625 116.425781 199.765625 114.257812 C 199.765625 112.09375 201.527344 110.328125 203.699219 110.328125 C 205.871094 110.328125 207.636719 112.09375 207.636719 114.257812 " fill-opacity="1" fill-rule="nonzero"/><g fill="#000000" fill-opacity="1"><g transform="translate(117.643749, 248.093237)"><g><path d="M 9.003906 -24.679688 C 9.15625 -25.144531 9.363281 -25.558594 9.625 -25.921875 C 9.882812 -26.285156 10.246094 -26.542969 10.605469 -26.800781 C 10.96875 -27.058594 11.277344 -27.421875 11.746094 -27.578125 C 12.160156 -27.730469 12.625 -27.785156 13.089844 -27.835938 C 13.605469 -27.9375 14.125 -27.992188 14.589844 -27.886719 C 15.109375 -27.785156 15.574219 -27.628906 16.039062 -27.421875 C 16.503906 -27.214844 16.96875 -27.007812 17.4375 -26.75 C 17.851562 -26.492188 18.316406 -26.179688 18.730469 -25.921875 C 19.195312 -25.664062 19.609375 -25.351562 20.023438 -25.144531 C 20.539062 -24.835938 20.902344 -24.730469 21.214844 -24.679688 C 21.679688 -24.628906 22.039062 -24.730469 22.453125 -25.09375 C 22.714844 -25.351562 22.921875 -25.765625 23.28125 -26.179688 C 23.542969 -26.492188 23.851562 -27.007812 24.109375 -27.578125 C 24.316406 -28.199219 24.523438 -28.871094 24.164062 -29.179688 C 23.4375 -29.75 23.128906 -29.957031 22.765625 -30.214844 C 22.453125 -30.421875 22.09375 -30.679688 21.316406 -31.148438 C 20.851562 -31.457031 20.332031 -31.613281 19.917969 -31.820312 C 19.453125 -32.027344 18.988281 -32.234375 18.523438 -32.386719 C 18.058594 -32.542969 17.589844 -32.75 17.074219 -32.855469 C 16.609375 -32.957031 16.089844 -33.113281 15.574219 -33.164062 C 15.109375 -33.214844 14.589844 -33.113281 14.074219 -33.113281 C 13.554688 -33.113281 13.089844 -33.0625 12.675781 -33.007812 C 12.160156 -32.957031 11.691406 -32.957031 11.226562 -32.855469 C 10.761719 -32.75 10.347656 -32.59375 9.882812 -32.441406 C 9.46875 -32.285156 9.054688 -32.078125 8.640625 -31.871094 C 8.175781 -31.664062 7.761719 -31.457031 7.398438 -31.199219 C 6.984375 -30.941406 6.621094 -30.628906 6.3125 -30.320312 C 5.949219 -29.957031 5.535156 -29.699219 5.277344 -29.335938 C 4.96875 -28.972656 4.8125 -28.507812 4.554688 -28.09375 C 4.347656 -27.679688 4.085938 -27.316406 3.878906 -26.851562 C 3.726562 -26.4375 3.621094 -25.972656 3.519531 -25.507812 C 3.414062 -25.042969 3.3125 -24.574219 3.257812 -24.109375 C 3.207031 -23.644531 3.207031 -23.179688 3.207031 -22.660156 C 3.207031 -22.195312 3.207031 -21.679688 3.3125 -21.214844 C 3.363281 -20.746094 3.519531 -20.230469 3.671875 -19.816406 C 3.828125 -19.351562 4.140625 -18.9375 4.347656 -18.523438 C 4.605469 -18.109375 4.914062 -17.695312 5.226562 -17.332031 C 5.535156 -16.96875 5.949219 -16.710938 6.363281 -16.402344 C 6.726562 -16.089844 7.140625 -15.832031 7.554688 -15.625 C 7.96875 -15.417969 8.433594 -15.210938 8.898438 -15.054688 C 9.3125 -14.902344 9.777344 -14.746094 10.191406 -14.589844 C 10.660156 -14.433594 11.070312 -14.28125 11.539062 -14.125 C 11.953125 -13.96875 12.417969 -13.8125 12.832031 -13.660156 C 13.296875 -13.503906 13.710938 -13.402344 14.175781 -13.195312 C 14.589844 -13.039062 15.003906 -12.832031 15.417969 -12.675781 C 15.882812 -12.519531 16.246094 -12.210938 16.710938 -12.054688 C 17.125 -11.898438 17.589844 -11.796875 18.003906 -11.589844 C 18.417969 -11.332031 18.78125 -11.070312 19.089844 -10.761719 C 19.402344 -10.398438 19.660156 -10.039062 19.765625 -9.570312 C 19.816406 -9.15625 19.867188 -8.691406 19.765625 -8.175781 C 19.660156 -7.761719 19.453125 -7.296875 19.144531 -6.828125 C 18.882812 -6.46875 18.472656 -6.207031 18.058594 -5.898438 C 17.695312 -5.585938 17.230469 -5.378906 16.816406 -5.175781 C 16.347656 -4.96875 15.9375 -4.761719 15.46875 -4.65625 C 14.953125 -4.554688 14.488281 -4.605469 14.019531 -4.65625 C 13.503906 -4.707031 13.039062 -4.8125 12.519531 -4.96875 C 12.054688 -5.121094 11.589844 -5.328125 11.125 -5.585938 C 10.660156 -5.792969 10.191406 -6 9.777344 -6.261719 C 9.3125 -6.519531 8.949219 -6.882812 8.535156 -7.191406 C 8.121094 -7.554688 7.65625 -7.8125 7.398438 -8.175781 C 6.984375 -8.640625 6.726562 -8.949219 6.363281 -9.054688 C 5.949219 -9.15625 5.640625 -8.898438 5.175781 -8.535156 C 4.863281 -8.328125 4.554688 -8.019531 4.191406 -7.65625 C 3.777344 -7.242188 3.363281 -6.882812 3.105469 -6.570312 C 2.742188 -6.105469 2.433594 -5.640625 2.585938 -5.175781 C 2.742188 -4.8125 3.050781 -4.398438 3.570312 -3.984375 C 3.777344 -3.726562 4.085938 -3.363281 4.605469 -2.949219 C 4.914062 -2.640625 5.277344 -2.328125 5.691406 -2.019531 C 6.054688 -1.757812 6.519531 -1.550781 6.933594 -1.292969 C 7.347656 -1.035156 7.761719 -0.828125 8.226562 -0.621094 C 8.691406 -0.414062 9.15625 -0.363281 9.625 -0.257812 C 10.089844 -0.101562 10.503906 0.207031 11.019531 0.257812 C 11.433594 0.363281 11.953125 0.308594 12.46875 0.363281 C 12.933594 0.414062 13.402344 0.570312 13.917969 0.570312 C 14.382812 0.570312 14.847656 0.515625 15.261719 0.515625 C 15.78125 0.464844 16.195312 0.363281 16.660156 0.308594 C 17.125 0.257812 17.539062 0.101562 18.003906 0 C 18.472656 -0.101562 18.882812 -0.207031 19.296875 -0.363281 C 19.765625 -0.515625 20.179688 -0.671875 20.59375 -0.878906 C 21.007812 -1.085938 21.421875 -1.292969 21.78125 -1.550781 C 22.195312 -1.8125 22.507812 -2.171875 22.816406 -2.484375 C 23.179688 -2.742188 23.59375 -3 23.851562 -3.363281 C 24.164062 -3.726562 24.367188 -4.140625 24.574219 -4.554688 C 24.78125 -4.96875 25.042969 -5.328125 25.195312 -5.792969 C 25.351562 -6.207031 25.457031 -6.675781 25.558594 -7.140625 C 25.609375 -7.554688 25.609375 -8.019531 25.609375 -8.484375 C 25.609375 -8.949219 25.609375 -9.417969 25.558594 -9.882812 C 25.507812 -10.296875 25.402344 -10.761719 25.300781 -11.175781 C 25.195312 -11.640625 24.988281 -12.054688 24.835938 -12.46875 C 24.679688 -12.882812 24.574219 -13.296875 24.316406 -13.710938 C 24.109375 -14.074219 23.800781 -14.433594 23.542969 -14.796875 C 23.230469 -15.109375 22.867188 -15.417969 22.558594 -15.730469 C 22.195312 -15.988281 21.9375 -16.347656 21.523438 -16.609375 C 21.160156 -16.867188 20.800781 -17.074219 20.386719 -17.28125 C 19.972656 -17.488281 19.558594 -17.644531 19.089844 -17.796875 C 18.679688 -17.902344 18.265625 -18.003906 17.851562 -18.160156 C 17.488281 -18.265625 17.074219 -18.472656 16.660156 -18.574219 C 16.296875 -18.730469 15.882812 -18.832031 15.46875 -18.988281 C 15.054688 -19.144531 14.640625 -19.195312 14.226562 -19.351562 C 13.8125 -19.503906 13.347656 -19.609375 12.882812 -19.816406 C 12.46875 -19.972656 12.054688 -20.230469 11.640625 -20.4375 C 11.175781 -20.59375 10.761719 -20.800781 10.347656 -21.058594 C 9.933594 -21.367188 9.625 -21.679688 9.363281 -22.039062 C 9.054688 -22.402344 8.796875 -22.867188 8.742188 -23.335938 C 8.742188 -23.800781 8.898438 -24.265625 9.003906 -24.679688 Z M 9.003906 -24.679688 "/></g></g></g><g fill="#000000" fill-opacity="1"><g transform="translate(145.890868, 248.093237)"><g><path d="M 15.832031 -26.957031 C 16.347656 -26.957031 16.867188 -26.902344 17.28125 -26.902344 C 17.796875 -26.902344 18.265625 -26.902344 18.730469 -26.902344 C 19.246094 -26.902344 19.710938 -26.902344 20.179688 -26.902344 C 20.800781 -26.902344 21.265625 -27.058594 21.625 -27.265625 C 22.039062 -27.523438 22.351562 -27.886719 22.453125 -28.457031 C 22.558594 -28.871094 22.609375 -29.386719 22.609375 -29.957031 C 22.609375 -30.472656 22.507812 -30.941406 22.402344 -31.300781 C 22.300781 -31.769531 22.039062 -32.183594 21.625 -32.335938 C 21.316406 -32.492188 20.851562 -32.542969 20.28125 -32.542969 C 19.816406 -32.542969 19.351562 -32.542969 18.882812 -32.59375 C 18.417969 -32.59375 17.902344 -32.542969 17.4375 -32.542969 C 16.96875 -32.542969 16.503906 -32.59375 16.039062 -32.59375 C 15.574219 -32.59375 15.109375 -32.542969 14.640625 -32.542969 C 14.175781 -32.542969 13.710938 -32.648438 13.195312 -32.648438 C 12.726562 -32.648438 12.261719 -32.542969 11.796875 -32.542969 C 11.332031 -32.542969 10.863281 -32.59375 10.398438 -32.59375 C 9.933594 -32.59375 9.46875 -32.59375 8.949219 -32.59375 C 8.484375 -32.648438 8.019531 -32.699219 7.554688 -32.75 C 7.089844 -32.75 6.621094 -32.699219 6.15625 -32.699219 C 5.691406 -32.699219 5.226562 -32.75 4.707031 -32.75 C 4.242188 -32.75 3.777344 -32.75 3.3125 -32.75 C 2.84375 -32.800781 2.277344 -32.75 1.964844 -32.492188 C 1.65625 -32.183594 1.398438 -31.820312 1.292969 -31.457031 C 1.136719 -30.992188 1.242188 -30.527344 1.242188 -30.164062 C 1.292969 -29.699219 1.085938 -29.179688 1.136719 -28.714844 C 1.191406 -28.25 1.398438 -27.835938 1.863281 -27.472656 C 2.171875 -27.214844 2.585938 -27.007812 3.105469 -27.007812 C 3.519531 -26.957031 4.035156 -27.007812 4.449219 -26.957031 C 4.96875 -26.957031 5.484375 -26.957031 5.949219 -26.902344 C 6.46875 -26.851562 6.984375 -26.851562 7.398438 -26.800781 C 8.328125 -26.75 8.433594 -27.214844 8.898438 -26.644531 C 9.363281 -26.078125 8.898438 -26.023438 8.898438 -25.09375 C 8.898438 -24.628906 8.847656 -24.109375 8.898438 -23.542969 C 8.898438 -23.023438 9.003906 -22.507812 9.003906 -21.988281 C 9.003906 -21.574219 8.847656 -21.109375 8.847656 -20.59375 C 8.847656 -20.125 8.898438 -19.660156 8.898438 -19.195312 C 8.898438 -18.730469 8.847656 -18.265625 8.847656 -17.796875 C 8.847656 -17.332031 8.796875 -16.867188 8.796875 -16.402344 C 8.796875 -15.9375 8.847656 -15.417969 8.847656 -14.953125 C 8.847656 -14.488281 8.847656 -14.019531 8.847656 -13.554688 C 8.847656 -13.089844 8.898438 -12.625 8.898438 -12.160156 C 8.898438 -11.691406 8.949219 -11.175781 8.949219 -10.710938 C 8.949219 -10.246094 8.847656 -9.777344 8.898438 -9.3125 C 8.898438 -8.847656 8.949219 -8.382812 8.949219 -7.917969 C 8.949219 -7.449219 9.003906 -6.984375 9.003906 -6.519531 C 9.003906 -6.054688 8.898438 -5.585938 8.898438 -5.121094 C 8.898438 -4.65625 8.898438 -4.191406 8.949219 -3.726562 C 8.949219 -3.257812 9.003906 -2.792969 9.003906 -2.328125 C 9.003906 -1.605469 9.054688 -1.136719 9.210938 -0.777344 C 9.417969 -0.15625 9.777344 0.101562 10.347656 0.15625 C 10.8125 0.15625 11.332031 0.101562 11.953125 0.101562 C 12.625 0.0507812 13.089844 -0.0507812 13.453125 -0.15625 C 14.125 -0.257812 14.332031 -0.515625 14.488281 -0.984375 C 14.640625 -1.34375 14.695312 -1.8125 14.695312 -2.433594 C 14.695312 -2.898438 14.640625 -3.414062 14.640625 -3.933594 C 14.640625 -4.398438 14.695312 -4.914062 14.640625 -5.433594 C 14.640625 -5.898438 14.589844 -6.414062 14.589844 -6.933594 C 14.589844 -7.398438 14.640625 -7.917969 14.640625 -8.382812 C 14.640625 -8.898438 14.539062 -9.417969 14.539062 -9.882812 C 14.539062 -10.398438 14.746094 -10.863281 14.746094 -11.382812 C 14.746094 -11.847656 14.746094 -12.367188 14.695312 -12.832031 C 14.695312 -13.347656 14.640625 -13.867188 14.640625 -14.332031 C 14.640625 -14.796875 14.695312 -15.261719 14.695312 -15.730469 C 14.695312 -16.195312 14.539062 -16.660156 14.539062 -17.125 C 14.539062 -17.589844 14.488281 -18.058594 14.488281 -18.523438 C 14.488281 -18.988281 14.433594 -19.453125 14.433594 -19.917969 C 14.433594 -20.386719 14.433594 -20.851562 14.433594 -21.316406 C 14.433594 -21.78125 14.382812 -22.246094 14.382812 -22.714844 C 14.382812 -23.179688 14.488281 -23.644531 14.488281 -24.164062 C 14.488281 -24.574219 14.433594 -25.042969 14.433594 -25.558594 C 14.382812 -26.023438 14.488281 -26.386719 14.433594 -26.902344 C 14.953125 -26.902344 15.367188 -26.957031 15.832031 -26.957031 Z M 15.832031 -26.957031 "/></g></g></g><g fill="#000000" fill-opacity="1"><g transform="translate(169.6888, 248.093237)"><g><path d="M 3.828125 -26.335938 C 3.828125 -25.871094 3.777344 -25.402344 3.777344 -24.886719 C 3.777344 -24.421875 3.777344 -23.902344 3.777344 -23.4375 C 3.777344 -22.972656 3.777344 -22.453125 3.777344 -21.988281 C 3.777344 -21.523438 3.777344 -21.007812 3.777344 -20.539062 C 3.777344 -20.074219 3.777344 -19.558594 3.777344 -19.089844 C 3.777344 -18.625 3.726562 -18.109375 3.777344 -17.644531 C 3.777344 -17.175781 3.828125 -16.660156 3.828125 -16.195312 C 3.828125 -15.730469 3.777344 -15.210938 3.777344 -14.746094 C 3.777344 -14.28125 3.828125 -13.761719 3.828125 -13.347656 C 3.828125 -12.832031 3.878906 -12.3125 3.878906 -11.898438 C 3.878906 -11.332031 3.878906 -10.8125 3.878906 -10.453125 C 3.878906 -9.984375 3.878906 -9.570312 3.878906 -9.105469 C 3.933594 -8.640625 3.984375 -8.226562 4.035156 -7.761719 C 4.085938 -7.347656 4.242188 -6.882812 4.347656 -6.46875 C 4.449219 -6.054688 4.605469 -5.640625 4.8125 -5.226562 C 4.96875 -4.8125 5.121094 -4.347656 5.328125 -3.984375 C 5.585938 -3.621094 5.742188 -3.15625 6.054688 -2.84375 C 6.3125 -2.484375 6.726562 -2.226562 7.089844 -1.914062 C 7.398438 -1.65625 7.761719 -1.34375 8.175781 -1.136719 C 8.535156 -0.878906 8.898438 -0.671875 9.363281 -0.464844 C 9.777344 -0.308594 10.191406 -0.101562 10.660156 0.0507812 C 11.070312 0.207031 11.539062 0.257812 12.003906 0.363281 C 12.417969 0.515625 12.882812 0.671875 13.347656 0.722656 C 13.761719 0.777344 14.28125 0.828125 14.695312 0.878906 C 15.160156 0.878906 15.625 0.828125 16.089844 0.777344 C 16.554688 0.777344 17.023438 0.722656 17.488281 0.671875 C 17.953125 0.570312 18.367188 0.414062 18.832031 0.308594 C 19.296875 0.15625 19.710938 0 20.125 -0.15625 C 20.59375 -0.363281 20.953125 -0.621094 21.367188 -0.878906 C 21.730469 -1.085938 22.144531 -1.292969 22.507812 -1.605469 C 22.867188 -1.863281 23.179688 -2.277344 23.488281 -2.585938 C 23.800781 -2.949219 24.164062 -3.207031 24.421875 -3.621094 C 24.679688 -3.984375 24.835938 -4.449219 25.042969 -4.863281 C 25.25 -5.277344 25.402344 -5.691406 25.558594 -6.105469 C 25.714844 -6.570312 25.871094 -6.984375 25.972656 -7.449219 C 26.078125 -7.917969 26.230469 -8.328125 26.285156 -8.796875 C 26.335938 -9.261719 26.285156 -9.726562 26.285156 -10.191406 C 26.285156 -10.710938 26.335938 -11.175781 26.335938 -11.589844 C 26.335938 -12.105469 26.335938 -12.574219 26.335938 -13.039062 C 26.335938 -13.503906 26.285156 -13.96875 26.285156 -14.382812 C 26.285156 -14.902344 26.335938 -15.367188 26.335938 -15.78125 C 26.335938 -16.296875 26.179688 -16.761719 26.179688 -17.175781 C 26.230469 -17.695312 26.386719 -18.160156 26.386719 -18.574219 C 26.386719 -19.089844 26.285156 -19.558594 26.285156 -19.972656 C 26.285156 -20.4375 26.4375 -20.902344 26.4375 -21.367188 C 26.4375 -21.832031 26.386719 -22.300781 26.386719 -22.765625 C 26.386719 -23.230469 26.386719 -23.644531 26.386719 -24.109375 C 26.386719 -24.574219 26.335938 -25.042969 26.335938 -25.507812 C 26.335938 -25.972656 26.335938 -26.4375 26.335938 -26.902344 C 26.335938 -27.371094 26.335938 -27.835938 26.335938 -28.351562 C 26.335938 -28.714844 26.386719 -29.234375 26.4375 -29.75 C 26.4375 -30.265625 26.285156 -30.785156 26.230469 -31.148438 C 26.078125 -31.769531 25.871094 -32.183594 25.457031 -32.386719 C 25.042969 -32.648438 24.523438 -32.699219 24.007812 -32.699219 C 23.488281 -32.75 22.972656 -32.800781 22.453125 -32.75 C 21.78125 -32.75 21.214844 -32.75 20.800781 -32.59375 C 20.230469 -32.386719 19.972656 -31.976562 19.867188 -31.199219 C 19.867188 -30.835938 19.816406 -30.371094 19.816406 -29.90625 C 19.867188 -29.492188 19.972656 -29.027344 19.972656 -28.613281 C 20.023438 -28.144531 20.074219 -27.679688 20.125 -27.316406 C 20.125 -26.851562 20.074219 -26.386719 20.074219 -25.921875 C 20.074219 -25.507812 20.179688 -25.042969 20.179688 -24.574219 C 20.179688 -24.109375 20.28125 -23.695312 20.28125 -23.230469 C 20.332031 -22.765625 20.230469 -22.300781 20.230469 -21.886719 C 20.28125 -21.421875 20.28125 -20.953125 20.28125 -20.488281 C 20.332031 -20.023438 20.386719 -19.609375 20.386719 -19.144531 C 20.386719 -18.679688 20.386719 -18.210938 20.4375 -17.796875 C 20.4375 -17.332031 20.386719 -16.867188 20.386719 -16.402344 C 20.386719 -15.9375 20.386719 -15.523438 20.4375 -15.054688 C 20.4375 -14.589844 20.539062 -14.125 20.539062 -13.710938 C 20.539062 -13.246094 20.59375 -12.78125 20.59375 -12.3125 C 20.59375 -11.898438 20.539062 -11.433594 20.539062 -10.96875 C 20.539062 -10.453125 20.488281 -9.933594 20.4375 -9.46875 C 20.332031 -8.949219 20.230469 -8.484375 20.023438 -8.019531 C 19.867188 -7.554688 19.660156 -7.035156 19.402344 -6.675781 C 19.089844 -6.261719 18.679688 -5.949219 18.210938 -5.691406 C 17.851562 -5.484375 17.382812 -5.226562 16.867188 -5.070312 C 16.402344 -4.96875 15.882812 -5.121094 15.367188 -5.121094 C 14.902344 -5.121094 14.488281 -5.175781 14.074219 -5.226562 C 13.605469 -5.328125 13.195312 -5.433594 12.832031 -5.640625 C 12.46875 -5.847656 12.160156 -6.15625 11.847656 -6.46875 C 11.539062 -6.726562 11.175781 -6.984375 10.917969 -7.398438 C 10.710938 -7.761719 10.503906 -8.121094 10.347656 -8.535156 C 10.191406 -8.949219 10.039062 -9.417969 9.984375 -9.832031 C 9.882812 -10.246094 9.882812 -10.710938 9.882812 -11.125 C 9.882812 -11.589844 9.882812 -12.054688 9.882812 -12.519531 C 9.832031 -12.933594 9.984375 -13.402344 9.984375 -13.867188 C 9.984375 -14.28125 9.933594 -14.746094 9.933594 -15.210938 C 9.933594 -15.625 10.039062 -16.089844 10.039062 -16.554688 C 10.039062 -17.023438 9.882812 -17.4375 9.882812 -17.902344 C 9.882812 -18.367188 9.882812 -18.78125 9.882812 -19.246094 C 9.882812 -19.710938 10.039062 -20.125 10.039062 -20.59375 C 10.039062 -21.058594 9.984375 -21.472656 9.984375 -21.9375 C 9.984375 -22.402344 9.933594 -22.867188 9.933594 -23.28125 C 9.933594 -23.75 9.984375 -24.265625 9.984375 -24.78125 C 9.984375 -25.25 10.039062 -25.765625 9.984375 -26.285156 C 9.984375 -26.75 9.882812 -27.265625 9.882812 -27.785156 C 9.882812 -28.300781 10.039062 -28.765625 10.039062 -29.285156 C 10.039062 -29.800781 9.933594 -30.265625 9.933594 -30.734375 C 9.933594 -31.355469 9.882812 -31.820312 9.726562 -32.078125 C 9.46875 -32.492188 9.054688 -32.648438 8.535156 -32.699219 C 8.175781 -32.75 7.710938 -32.699219 7.140625 -32.699219 C 6.675781 -32.699219 6.15625 -32.699219 5.742188 -32.699219 C 5.226562 -32.699219 4.761719 -32.699219 4.449219 -32.492188 C 4.140625 -32.285156 3.984375 -31.921875 3.878906 -31.300781 C 3.828125 -30.992188 3.777344 -30.578125 3.777344 -30.113281 C 3.777344 -29.75 3.777344 -29.335938 3.777344 -28.921875 C 3.828125 -28.457031 3.777344 -27.992188 3.777344 -27.730469 C 3.777344 -27.371094 3.828125 -26.902344 3.828125 -26.335938 Z M 3.828125 -26.335938 "/></g></g></g><g fill="#000000" fill-opacity="1"><g transform="translate(199.850089, 248.093237)"><g><path d="M 13.867188 -11.226562 C 13.710938 -11.589844 13.605469 -12.105469 13.453125 -12.574219 C 13.296875 -12.988281 13.089844 -13.453125 12.933594 -13.917969 C 12.78125 -14.382812 12.574219 -14.796875 12.417969 -15.261719 C 12.261719 -15.730469 12.210938 -16.246094 12.054688 -16.660156 C 11.898438 -17.175781 11.796875 -17.644531 11.640625 -18.058594 C 11.484375 -18.574219 11.277344 -18.988281 11.125 -19.351562 C 11.019531 -19.765625 10.863281 -20.230469 10.761719 -20.644531 C 10.605469 -21.058594 10.554688 -21.523438 10.398438 -21.988281 C 10.246094 -22.402344 10.089844 -22.816406 9.933594 -23.230469 C 9.832031 -23.695312 9.625 -24.109375 9.46875 -24.523438 C 9.3125 -24.9375 9.105469 -25.351562 9.003906 -25.765625 C 8.847656 -26.230469 8.742188 -26.644531 8.640625 -27.109375 C 8.484375 -27.523438 8.328125 -27.9375 8.175781 -28.351562 C 8.019531 -28.820312 7.917969 -29.234375 7.761719 -29.644531 C 7.605469 -30.113281 7.398438 -30.472656 7.242188 -30.886719 C 7.089844 -31.355469 6.984375 -31.769531 6.828125 -32.183594 C 6.621094 -32.648438 6.15625 -32.648438 5.535156 -32.648438 C 5.019531 -32.648438 4.449219 -32.75 4.035156 -32.800781 C 3.3125 -32.855469 2.691406 -32.855469 2.277344 -32.648438 C 1.757812 -32.441406 1.398438 -31.976562 1.449219 -31.199219 C 1.449219 -30.992188 1.5 -30.527344 1.65625 -30.007812 C 1.757812 -29.59375 2.019531 -29.234375 2.121094 -28.820312 C 2.328125 -28.300781 2.484375 -27.835938 2.535156 -27.628906 C 2.691406 -27.214844 2.898438 -26.800781 3.050781 -26.386719 C 3.207031 -25.921875 3.3125 -25.507812 3.464844 -25.042969 C 3.621094 -24.628906 3.777344 -24.214844 3.933594 -23.75 C 4.085938 -23.335938 4.085938 -22.867188 4.242188 -22.453125 C 4.398438 -21.988281 4.605469 -21.574219 4.761719 -21.160156 C 4.914062 -20.746094 4.96875 -20.28125 5.121094 -19.816406 C 5.277344 -19.402344 5.585938 -19.039062 5.742188 -18.574219 C 5.898438 -18.160156 6.054688 -17.746094 6.207031 -17.28125 C 6.363281 -16.867188 6.363281 -16.402344 6.519531 -15.988281 C 6.675781 -15.523438 6.933594 -15.160156 7.089844 -14.695312 C 7.191406 -14.28125 7.398438 -13.867188 7.554688 -13.402344 C 7.710938 -12.988281 7.8125 -12.519531 7.96875 -12.105469 C 8.121094 -11.691406 8.226562 -11.226562 8.382812 -10.8125 C 8.535156 -10.398438 8.796875 -9.984375 8.949219 -9.519531 C 9.105469 -9.105469 9.105469 -8.640625 9.261719 -8.226562 C 9.417969 -7.761719 9.625 -7.347656 9.777344 -6.933594 C 9.933594 -6.519531 10.039062 -6.054688 10.191406 -5.640625 C 10.347656 -5.175781 10.503906 -4.761719 10.660156 -4.347656 C 10.8125 -3.933594 11.070312 -3.519531 11.226562 -3.050781 C 11.382812 -2.640625 11.484375 -2.226562 11.640625 -1.757812 C 11.847656 -1.242188 12.054688 -0.828125 12.367188 -0.570312 C 12.675781 -0.257812 13.140625 -0.207031 13.710938 -0.15625 C 14.125 -0.101562 14.539062 0 15.160156 0 C 15.730469 0 16.140625 -0.0507812 16.503906 -0.15625 C 17.074219 -0.257812 17.4375 -0.414062 17.746094 -0.777344 C 17.953125 -1.085938 18.160156 -1.550781 18.316406 -2.070312 C 18.472656 -2.484375 18.625 -2.949219 18.78125 -3.363281 C 18.882812 -3.828125 18.988281 -4.242188 19.144531 -4.707031 C 19.296875 -5.121094 19.503906 -5.535156 19.660156 -6 C 19.816406 -6.414062 19.765625 -6.933594 19.917969 -7.347656 C 20.074219 -7.8125 20.28125 -8.226562 20.386719 -8.691406 C 20.539062 -9.105469 20.644531 -9.570312 20.800781 -9.984375 C 20.953125 -10.453125 21.160156 -10.863281 21.316406 -11.332031 C 21.472656 -11.746094 21.523438 -12.210938 21.679688 -12.625 C 21.832031 -13.089844 21.988281 -13.554688 22.09375 -13.96875 C 22.246094 -14.433594 22.453125 -14.847656 22.609375 -15.261719 C 22.765625 -15.730469 22.867188 -16.195312 22.972656 -16.609375 C 23.128906 -17.074219 23.28125 -17.488281 23.4375 -17.953125 C 23.59375 -18.367188 23.800781 -18.78125 23.957031 -19.246094 C 24.109375 -19.660156 24.164062 -20.125 24.316406 -20.539062 C 24.472656 -21.007812 24.523438 -21.472656 24.679688 -21.886719 C 24.835938 -22.351562 25.042969 -22.765625 25.144531 -23.179688 C 25.300781 -23.59375 25.457031 -24.058594 25.609375 -24.472656 C 25.765625 -24.9375 25.871094 -25.351562 25.972656 -25.816406 C 26.128906 -26.230469 26.179688 -26.699219 26.335938 -27.164062 C 26.492188 -27.578125 26.699219 -27.992188 26.800781 -28.457031 C 26.957031 -28.871094 27.164062 -29.285156 27.316406 -29.75 C 27.523438 -30.421875 27.628906 -30.941406 27.679688 -31.355469 C 27.835938 -32.234375 27.578125 -32.59375 27.164062 -32.75 C 26.75 -32.855469 26.179688 -32.648438 25.558594 -32.648438 C 24.9375 -32.648438 24.472656 -32.75 24.058594 -32.699219 C 23.59375 -32.59375 23.230469 -32.386719 22.867188 -31.976562 C 22.609375 -31.714844 22.300781 -31.355469 22.039062 -30.785156 C 21.886719 -30.421875 21.730469 -29.957031 21.523438 -29.386719 C 21.472656 -29.179688 21.265625 -28.613281 21.109375 -28.09375 C 20.902344 -27.523438 20.695312 -27.007812 20.644531 -26.75 C 20.488281 -26.335938 20.332031 -25.871094 20.230469 -25.457031 C 20.074219 -24.988281 20.023438 -24.523438 19.867188 -24.058594 C 19.710938 -23.644531 19.609375 -23.179688 19.453125 -22.765625 C 19.296875 -22.300781 19.144531 -21.886719 18.988281 -21.421875 C 18.832031 -21.007812 18.625 -20.59375 18.472656 -20.125 C 18.316406 -19.710938 18.160156 -19.246094 18.003906 -18.832031 C 17.851562 -18.367188 17.695312 -17.953125 17.539062 -17.539062 C 17.382812 -17.074219 17.332031 -16.609375 17.175781 -16.195312 C 17.074219 -15.882812 16.816406 -15.46875 16.660156 -14.953125 C 16.503906 -14.539062 16.347656 -14.125 16.195312 -13.660156 C 16.089844 -13.246094 15.9375 -12.78125 15.78125 -12.367188 C 15.625 -11.898438 15.574219 -11.433594 15.417969 -11.070312 C 15.160156 -10.398438 14.796875 -9.933594 14.640625 -9.933594 C 14.488281 -9.984375 14.175781 -10.503906 13.867188 -11.226562 Z M 13.867188 -11.226562 "/></g></g></g><g fill="#000000" fill-opacity="1"><g transform="translate(229.080183, 248.093237)"><g><path d="M 9.003906 -24.679688 C 9.15625 -25.144531 9.363281 -25.558594 9.625 -25.921875 C 9.882812 -26.285156 10.246094 -26.542969 10.605469 -26.800781 C 10.96875 -27.058594 11.277344 -27.421875 11.746094 -27.578125 C 12.160156 -27.730469 12.625 -27.785156 13.089844 -27.835938 C 13.605469 -27.9375 14.125 -27.992188 14.589844 -27.886719 C 15.109375 -27.785156 15.574219 -27.628906 16.039062 -27.421875 C 16.503906 -27.214844 16.96875 -27.007812 17.4375 -26.75 C 17.851562 -26.492188 18.316406 -26.179688 18.730469 -25.921875 C 19.195312 -25.664062 19.609375 -25.351562 20.023438 -25.144531 C 20.539062 -24.835938 20.902344 -24.730469 21.214844 -24.679688 C 21.679688 -24.628906 22.039062 -24.730469 22.453125 -25.09375 C 22.714844 -25.351562 22.921875 -25.765625 23.28125 -26.179688 C 23.542969 -26.492188 23.851562 -27.007812 24.109375 -27.578125 C 24.316406 -28.199219 24.523438 -28.871094 24.164062 -29.179688 C 23.4375 -29.75 23.128906 -29.957031 22.765625 -30.214844 C 22.453125 -30.421875 22.09375 -30.679688 21.316406 -31.148438 C 20.851562 -31.457031 20.332031 -31.613281 19.917969 -31.820312 C 19.453125 -32.027344 18.988281 -32.234375 18.523438 -32.386719 C 18.058594 -32.542969 17.589844 -32.75 17.074219 -32.855469 C 16.609375 -32.957031 16.089844 -33.113281 15.574219 -33.164062 C 15.109375 -33.214844 14.589844 -33.113281 14.074219 -33.113281 C 13.554688 -33.113281 13.089844 -33.0625 12.675781 -33.007812 C 12.160156 -32.957031 11.691406 -32.957031 11.226562 -32.855469 C 10.761719 -32.75 10.347656 -32.59375 9.882812 -32.441406 C 9.46875 -32.285156 9.054688 -32.078125 8.640625 -31.871094 C 8.175781 -31.664062 7.761719 -31.457031 7.398438 -31.199219 C 6.984375 -30.941406 6.621094 -30.628906 6.3125 -30.320312 C 5.949219 -29.957031 5.535156 -29.699219 5.277344 -29.335938 C 4.96875 -28.972656 4.8125 -28.507812 4.554688 -28.09375 C 4.347656 -27.679688 4.085938 -27.316406 3.878906 -26.851562 C 3.726562 -26.4375 3.621094 -25.972656 3.519531 -25.507812 C 3.414062 -25.042969 3.3125 -24.574219 3.257812 -24.109375 C 3.207031 -23.644531 3.207031 -23.179688 3.207031 -22.660156 C 3.207031 -22.195312 3.207031 -21.679688 3.3125 -21.214844 C 3.363281 -20.746094 3.519531 -20.230469 3.671875 -19.816406 C 3.828125 -19.351562 4.140625 -18.9375 4.347656 -18.523438 C 4.605469 -18.109375 4.914062 -17.695312 5.226562 -17.332031 C 5.535156 -16.96875 5.949219 -16.710938 6.363281 -16.402344 C 6.726562 -16.089844 7.140625 -15.832031 7.554688 -15.625 C 7.96875 -15.417969 8.433594 -15.210938 8.898438 -15.054688 C 9.3125 -14.902344 9.777344 -14.746094 10.191406 -14.589844 C 10.660156 -14.433594 11.070312 -14.28125 11.539062 -14.125 C 11.953125 -13.96875 12.417969 -13.8125 12.832031 -13.660156 C 13.296875 -13.503906 13.710938 -13.402344 14.175781 -13.195312 C 14.589844 -13.039062 15.003906 -12.832031 15.417969 -12.675781 C 15.882812 -12.519531 16.246094 -12.210938 16.710938 -12.054688 C 17.125 -11.898438 17.589844 -11.796875 18.003906 -11.589844 C 18.417969 -11.332031 18.78125 -11.070312 19.089844 -10.761719 C 19.402344 -10.398438 19.660156 -10.039062 19.765625 -9.570312 C 19.816406 -9.15625 19.867188 -8.691406 19.765625 -8.175781 C 19.660156 -7.761719 19.453125 -7.296875 19.144531 -6.828125 C 18.882812 -6.46875 18.472656 -6.207031 18.058594 -5.898438 C 17.695312 -5.585938 17.230469 -5.378906 16.816406 -5.175781 C 16.347656 -4.96875 15.9375 -4.761719 15.46875 -4.65625 C 14.953125 -4.554688 14.488281 -4.605469 14.019531 -4.65625 C 13.503906 -4.707031 13.039062 -4.8125 12.519531 -4.96875 C 12.054688 -5.121094 11.589844 -5.328125 11.125 -5.585938 C 10.660156 -5.792969 10.191406 -6 9.777344 -6.261719 C 9.3125 -6.519531 8.949219 -6.882812 8.535156 -7.191406 C 8.121094 -7.554688 7.65625 -7.8125 7.398438 -8.175781 C 6.984375 -8.640625 6.726562 -8.949219 6.363281 -9.054688 C 5.949219 -9.15625 5.640625 -8.898438 5.175781 -8.535156 C 4.863281 -8.328125 4.554688 -8.019531 4.191406 -7.65625 C 3.777344 -7.242188 3.363281 -6.882812 3.105469 -6.570312 C 2.742188 -6.105469 2.433594 -5.640625 2.585938 -5.175781 C 2.742188 -4.8125 3.050781 -4.398438 3.570312 -3.984375 C 3.777344 -3.726562 4.085938 -3.363281 4.605469 -2.949219 C 4.914062 -2.640625 5.277344 -2.328125 5.691406 -2.019531 C 6.054688 -1.757812 6.519531 -1.550781 6.933594 -1.292969 C 7.347656 -1.035156 7.761719 -0.828125 8.226562 -0.621094 C 8.691406 -0.414062 9.15625 -0.363281 9.625 -0.257812 C 10.089844 -0.101562 10.503906 0.207031 11.019531 0.257812 C 11.433594 0.363281 11.953125 0.308594 12.46875 0.363281 C 12.933594 0.414062 13.402344 0.570312 13.917969 0.570312 C 14.382812 0.570312 14.847656 0.515625 15.261719 0.515625 C 15.78125 0.464844 16.195312 0.363281 16.660156 0.308594 C 17.125 0.257812 17.539062 0.101562 18.003906 0 C 18.472656 -0.101562 18.882812 -0.207031 19.296875 -0.363281 C 19.765625 -0.515625 20.179688 -0.671875 20.59375 -0.878906 C 21.007812 -1.085938 21.421875 -1.292969 21.78125 -1.550781 C 22.195312 -1.8125 22.507812 -2.171875 22.816406 -2.484375 C 23.179688 -2.742188 23.59375 -3 23.851562 -3.363281 C 24.164062 -3.726562 24.367188 -4.140625 24.574219 -4.554688 C 24.78125 -4.96875 25.042969 -5.328125 25.195312 -5.792969 C 25.351562 -6.207031 25.457031 -6.675781 25.558594 -7.140625 C 25.609375 -7.554688 25.609375 -8.019531 25.609375 -8.484375 C 25.609375 -8.949219 25.609375 -9.417969 25.558594 -9.882812 C 25.507812 -10.296875 25.402344 -10.761719 25.300781 -11.175781 C 25.195312 -11.640625 24.988281 -12.054688 24.835938 -12.46875 C 24.679688 -12.882812 24.574219 -13.296875 24.316406 -13.710938 C 24.109375 -14.074219 23.800781 -14.433594 23.542969 -14.796875 C 23.230469 -15.109375 22.867188 -15.417969 22.558594 -15.730469 C 22.195312 -15.988281 21.9375 -16.347656 21.523438 -16.609375 C 21.160156 -16.867188 20.800781 -17.074219 20.386719 -17.28125 C 19.972656 -17.488281 19.558594 -17.644531 19.089844 -17.796875 C 18.679688 -17.902344 18.265625 -18.003906 17.851562 -18.160156 C 17.488281 -18.265625 17.074219 -18.472656 16.660156 -18.574219 C 16.296875 -18.730469 15.882812 -18.832031 15.46875 -18.988281 C 15.054688 -19.144531 14.640625 -19.195312 14.226562 -19.351562 C 13.8125 -19.503906 13.347656 -19.609375 12.882812 -19.816406 C 12.46875 -19.972656 12.054688 -20.230469 11.640625 -20.4375 C 11.175781 -20.59375 10.761719 -20.800781 10.347656 -21.058594 C 9.933594 -21.367188 9.625 -21.679688 9.363281 -22.039062 C 9.054688 -22.402344 8.796875 -22.867188 8.742188 -23.335938 C 8.742188 -23.800781 8.898438 -24.265625 9.003906 -24.679688 Z M 9.003906 -24.679688 "/></g></g></g><g fill="#000000" fill-opacity="1"><g transform="translate(138.145652, 275.584986)"><g><path d="M 0.128906 -2.761719 C 0.75 -0.476562 3.660156 0.183594 5.5625 0.183594 C 7.847656 0.183594 11.050781 -0.621094 11.050781 -3.53125 C 11.050781 -6.441406 8.308594 -6.550781 5.761719 -6.789062 C 3.96875 -6.917969 2.433594 -7.0625 2.433594 -8.253906 C 2.433594 -9.53125 4.410156 -9.878906 5.398438 -9.878906 C 6.515625 -9.878906 8.160156 -9.734375 8.601562 -8.601562 C 8.746094 -8.269531 9.128906 -8.085938 9.53125 -8.085938 C 10.15625 -8.085938 10.777344 -8.601562 10.574219 -9.277344 C 9.714844 -11.289062 7.28125 -11.839844 5.378906 -11.839844 C 3.09375 -11.839844 0.238281 -10.777344 0.238281 -8.269531 C 0.238281 -5.488281 3.074219 -5.140625 5.5625 -4.941406 C 7.191406 -4.8125 8.855469 -4.664062 8.855469 -3.511719 C 8.855469 -2.066406 6.84375 -1.738281 5.5625 -1.738281 C 4.335938 -1.738281 2.652344 -2.011719 2.25 -3.203125 C 2.160156 -3.679688 1.71875 -3.914062 1.246094 -3.914062 C 0.605469 -3.914062 -0.0546875 -3.476562 0.128906 -2.761719 Z M 0.128906 -2.761719 "/></g></g></g><g fill="#000000" fill-opacity="1"><g transform="translate(152.482788, 275.584986)"><g><path d="M 9.476562 -11.65625 L 0.566406 -11.65625 C -0.144531 -11.65625 -0.457031 -11.179688 -0.457031 -10.703125 C -0.457031 -10.246094 -0.144531 -9.769531 0.566406 -9.769531 L 3.953125 -9.769531 L 3.953125 -0.96875 C 3.953125 -0.3125 4.5 0 5.011719 0 C 5.488281 0 6.09375 -0.3125 6.09375 -0.96875 L 6.074219 -9.769531 L 9.476562 -9.769531 C 10.171875 -9.769531 10.558594 -10.246094 10.558594 -10.703125 C 10.558594 -11.179688 10.171875 -11.65625 9.476562 -11.65625 Z M 9.476562 -11.65625 "/></g></g></g><g fill="#000000" fill-opacity="1"><g transform="translate(165.777691, 275.584986)"><g><path d="M 9.917969 -10.6875 L 9.917969 -5.140625 C 9.917969 -3.109375 8.5625 -1.738281 6.53125 -1.738281 C 4.539062 -1.738281 3.203125 -3.109375 3.203125 -5.140625 L 3.203125 -10.722656 C 3.203125 -11.363281 2.652344 -11.65625 2.105469 -11.65625 C 1.554688 -11.65625 1.042969 -11.34375 1.042969 -10.742188 L 1.042969 -5.140625 C 1.042969 -1.957031 3.238281 0.183594 6.550781 0.183594 C 9.863281 0.183594 12.058594 -1.957031 12.058594 -5.140625 L 12.058594 -10.703125 C 12.058594 -11.34375 11.546875 -11.65625 10.996094 -11.65625 C 10.449219 -11.65625 9.917969 -11.34375 9.917969 -10.6875 Z M 9.917969 -10.6875 "/></g></g></g><g fill="#000000" fill-opacity="1"><g transform="translate(182.181, 275.584986)"><g><path d="M 5.398438 -11.65625 L 1.628906 -11.65625 C 0.96875 -11.65625 0.421875 -11.179688 0.421875 -10.59375 L 0.421875 -1.078125 C 0.421875 -0.492188 0.96875 0 1.628906 0 L 5.398438 0 C 8.726562 0 10.941406 -2.324219 10.941406 -5.820312 C 10.941406 -9.3125 8.726562 -11.65625 5.398438 -11.65625 Z M 5.398438 -1.8125 L 2.507812 -1.8125 L 2.507812 -9.863281 L 5.398438 -9.863281 C 7.445312 -9.863281 8.835938 -8.234375 8.835938 -5.820312 C 8.835938 -3.402344 7.445312 -1.8125 5.398438 -1.8125 Z M 5.398438 -1.8125 "/></g></g></g><g fill="#000000" fill-opacity="1"><g transform="translate(196.719268, 275.584986)"><g><path d="M 9.53125 -1.828125 L 3.148438 -1.828125 L 3.148438 -4.867188 L 9.203125 -4.867188 C 9.84375 -4.867188 10.15625 -5.304688 10.15625 -5.746094 C 10.15625 -6.203125 9.824219 -6.660156 9.203125 -6.660156 L 3.148438 -6.660156 L 3.148438 -9.863281 L 9.53125 -9.863281 C 10.15625 -9.863281 10.503906 -10.339844 10.503906 -10.777344 C 10.503906 -11.234375 10.191406 -11.65625 9.53125 -11.65625 L 2.269531 -11.65625 C 1.535156 -11.65625 1.0625 -11.160156 1.0625 -10.574219 L 1.0625 -1.097656 C 1.0625 -0.492188 1.535156 0 2.269531 0 L 9.53125 0 C 10.210938 0 10.539062 -0.4375 10.539062 -0.878906 C 10.539062 -1.335938 10.171875 -1.828125 9.53125 -1.828125 Z M 9.53125 -1.828125 "/></g></g></g><g fill="#000000" fill-opacity="1"><g transform="translate(210.928414, 275.584986)"><g><path d="M 8.820312 -10.757812 L 8.820312 -4.867188 L 8.890625 -3.640625 L 3.148438 -11.105469 C 2.855469 -11.472656 2.542969 -11.65625 2.085938 -11.65625 C 1.5 -11.65625 0.96875 -11.269531 0.96875 -10.539062 L 0.96875 -0.96875 C 0.96875 -0.292969 1.5 0 2.066406 0 C 2.597656 0 3.148438 -0.292969 3.148438 -0.96875 L 3.148438 -6.714844 L 3.074219 -7.738281 L 8.671875 -0.53125 C 8.910156 -0.21875 9.351562 0 9.769531 0 C 10.375 0 10.996094 -0.367188 10.996094 -1.097656 L 10.996094 -10.757812 C 10.996094 -11.382812 10.484375 -11.65625 9.933594 -11.65625 C 9.386719 -11.65625 8.820312 -11.34375 8.820312 -10.757812 Z M 8.820312 -10.757812 "/></g></g></g><g fill="#000000" fill-opacity="1"><g transform="translate(226.088361, 275.584986)"><g><path d="M 9.476562 -11.65625 L 0.566406 -11.65625 C -0.144531 -11.65625 -0.457031 -11.179688 -0.457031 -10.703125 C -0.457031 -10.246094 -0.144531 -9.769531 0.566406 -9.769531 L 3.953125 -9.769531 L 3.953125 -0.96875 C 3.953125 -0.3125 4.5 0 5.011719 0 C 5.488281 0 6.09375 -0.3125 6.09375 -0.96875 L 6.074219 -9.769531 L 9.476562 -9.769531 C 10.171875 -9.769531 10.558594 -10.246094 10.558594 -10.703125 C 10.558594 -11.179688 10.171875 -11.65625 9.476562 -11.65625 Z M 9.476562 -11.65625 "/></g></g></g></svg>
